<svg xmlns="http://www.w3.org/2000/svg" xml:space="preserve" xmlns:xlink="http://www.w3.org/1999/xlink" style="max-width: 100%;height: auto;" width="1023" height="1023" viewBox="0 0 1023 1023">
<rect width="1023" height="1023" fill="none" x="0" y="0" />
<g fill="#363636">
<g transform="translate(310,62) scale(5.3216666666667)"><rect width="6" height="6"/></g>
<g transform="translate(341,62) scale(5.3216666666667)"><rect width="6" height="6"/></g>
<g transform="translate(372,62) scale(5.3216666666667)"><rect width="6" height="6"/></g>
<g transform="translate(403,62) scale(5.3216666666667)"><rect width="6" height="6"/></g>
<g transform="translate(434,62) scale(5.3216666666667)"><rect width="6" height="6"/></g>
<g transform="translate(465,62) scale(5.3216666666667)"><rect width="6" height="6"/></g>
<g transform="translate(496,62) scale(5.3216666666667)"><rect width="6" height="6"/></g>
<g transform="translate(310,93) scale(5.3216666666667)"><rect width="6" height="6"/></g>
<g transform="translate(372,93) scale(5.3216666666667)"><rect width="6" height="6"/></g>
<g transform="translate(434,93) scale(5.3216666666667)"><rect width="6" height="6"/></g>
<g transform="translate(527,93) scale(5.3216666666667)"><rect width="6" height="6"/></g>
<g transform="translate(620,93) scale(5.3216666666667)"><rect width="6" height="6"/></g>
<g transform="translate(682,93) scale(5.3216666666667)"><rect width="6" height="6"/></g>
<g transform="translate(310,124) scale(5.3216666666667)"><rect width="6" height="6"/></g>
<g transform="translate(341,124) scale(5.3216666666667)"><rect width="6" height="6"/></g>
<g transform="translate(434,124) scale(5.3216666666667)"><rect width="6" height="6"/></g>
<g transform="translate(527,124) scale(5.3216666666667)"><rect width="6" height="6"/></g>
<g transform="translate(620,124) scale(5.3216666666667)"><rect width="6" height="6"/></g>
<g transform="translate(434,155) scale(5.3216666666667)"><rect width="6" height="6"/></g>
<g transform="translate(465,155) scale(5.3216666666667)"><rect width="6" height="6"/></g>
<g transform="translate(589,155) scale(5.3216666666667)"><rect width="6" height="6"/></g>
<g transform="translate(620,155) scale(5.3216666666667)"><rect width="6" height="6"/></g>
<g transform="translate(682,155) scale(5.3216666666667)"><rect width="6" height="6"/></g>
<g transform="translate(372,186) scale(5.3216666666667)"><rect width="6" height="6"/></g>
<g transform="translate(434,186) scale(5.3216666666667)"><rect width="6" height="6"/></g>
<g transform="translate(465,186) scale(5.3216666666667)"><rect width="6" height="6"/></g>
<g transform="translate(527,186) scale(5.3216666666667)"><rect width="6" height="6"/></g>
<g transform="translate(589,186) scale(5.3216666666667)"><rect width="6" height="6"/></g>
<g transform="translate(651,186) scale(5.3216666666667)"><rect width="6" height="6"/></g>
<g transform="translate(682,186) scale(5.3216666666667)"><rect width="6" height="6"/></g>
<g transform="translate(310,217) scale(5.3216666666667)"><rect width="6" height="6"/></g>
<g transform="translate(372,217) scale(5.3216666666667)"><rect width="6" height="6"/></g>
<g transform="translate(496,217) scale(5.3216666666667)"><rect width="6" height="6"/></g>
<g transform="translate(558,217) scale(5.3216666666667)"><rect width="6" height="6"/></g>
<g transform="translate(589,217) scale(5.3216666666667)"><rect width="6" height="6"/></g>
<g transform="translate(310,248) scale(5.3216666666667)"><rect width="6" height="6"/></g>
<g transform="translate(372,248) scale(5.3216666666667)"><rect width="6" height="6"/></g>
<g transform="translate(434,248) scale(5.3216666666667)"><rect width="6" height="6"/></g>
<g transform="translate(496,248) scale(5.3216666666667)"><rect width="6" height="6"/></g>
<g transform="translate(558,248) scale(5.3216666666667)"><rect width="6" height="6"/></g>
<g transform="translate(620,248) scale(5.3216666666667)"><rect width="6" height="6"/></g>
<g transform="translate(682,248) scale(5.3216666666667)"><rect width="6" height="6"/></g>
<g transform="translate(310,279) scale(5.3216666666667)"><rect width="6" height="6"/></g>
<g transform="translate(372,279) scale(5.3216666666667)"><rect width="6" height="6"/></g>
<g transform="translate(434,279) scale(5.3216666666667)"><rect width="6" height="6"/></g>
<g transform="translate(496,279) scale(5.3216666666667)"><rect width="6" height="6"/></g>
<g transform="translate(527,279) scale(5.3216666666667)"><rect width="6" height="6"/></g>
<g transform="translate(589,279) scale(5.3216666666667)"><rect width="6" height="6"/></g>
<g transform="translate(620,279) scale(5.3216666666667)"><rect width="6" height="6"/></g>
<g transform="translate(124,310) scale(5.3216666666667)"><rect width="6" height="6"/></g>
<g transform="translate(155,310) scale(5.3216666666667)"><rect width="6" height="6"/></g>
<g transform="translate(186,310) scale(5.3216666666667)"><rect width="6" height="6"/></g>
<g transform="translate(248,310) scale(5.3216666666667)"><rect width="6" height="6"/></g>
<g transform="translate(310,310) scale(5.3216666666667)"><rect width="6" height="6"/></g>
<g transform="translate(341,310) scale(5.3216666666667)"><rect width="6" height="6"/></g>
<g transform="translate(372,310) scale(5.3216666666667)"><rect width="6" height="6"/></g>
<g transform="translate(496,310) scale(5.3216666666667)"><rect width="6" height="6"/></g>
<g transform="translate(527,310) scale(5.3216666666667)"><rect width="6" height="6"/></g>
<g transform="translate(558,310) scale(5.3216666666667)"><rect width="6" height="6"/></g>
<g transform="translate(651,310) scale(5.3216666666667)"><rect width="6" height="6"/></g>
<g transform="translate(713,310) scale(5.3216666666667)"><rect width="6" height="6"/></g>
<g transform="translate(744,310) scale(5.3216666666667)"><rect width="6" height="6"/></g>
<g transform="translate(775,310) scale(5.3216666666667)"><rect width="6" height="6"/></g>
<g transform="translate(868,310) scale(5.3216666666667)"><rect width="6" height="6"/></g>
<g transform="translate(899,310) scale(5.3216666666667)"><rect width="6" height="6"/></g>
<g transform="translate(930,310) scale(5.3216666666667)"><rect width="6" height="6"/></g>
<g transform="translate(62,341) scale(5.3216666666667)"><rect width="6" height="6"/></g>
<g transform="translate(124,341) scale(5.3216666666667)"><rect width="6" height="6"/></g>
<g transform="translate(155,341) scale(5.3216666666667)"><rect width="6" height="6"/></g>
<g transform="translate(186,341) scale(5.3216666666667)"><rect width="6" height="6"/></g>
<g transform="translate(217,341) scale(5.3216666666667)"><rect width="6" height="6"/></g>
<g transform="translate(279,341) scale(5.3216666666667)"><rect width="6" height="6"/></g>
<g transform="translate(341,341) scale(5.3216666666667)"><rect width="6" height="6"/></g>
<g transform="translate(372,341) scale(5.3216666666667)"><rect width="6" height="6"/></g>
<g transform="translate(403,341) scale(5.3216666666667)"><rect width="6" height="6"/></g>
<g transform="translate(434,341) scale(5.3216666666667)"><rect width="6" height="6"/></g>
<g transform="translate(527,341) scale(5.3216666666667)"><rect width="6" height="6"/></g>
<g transform="translate(558,341) scale(5.3216666666667)"><rect width="6" height="6"/></g>
<g transform="translate(589,341) scale(5.3216666666667)"><rect width="6" height="6"/></g>
<g transform="translate(620,341) scale(5.3216666666667)"><rect width="6" height="6"/></g>
<g transform="translate(682,341) scale(5.3216666666667)"><rect width="6" height="6"/></g>
<g transform="translate(713,341) scale(5.3216666666667)"><rect width="6" height="6"/></g>
<g transform="translate(806,341) scale(5.3216666666667)"><rect width="6" height="6"/></g>
<g transform="translate(837,341) scale(5.3216666666667)"><rect width="6" height="6"/></g>
<g transform="translate(868,341) scale(5.3216666666667)"><rect width="6" height="6"/></g>
<g transform="translate(899,341) scale(5.3216666666667)"><rect width="6" height="6"/></g>
<g transform="translate(930,341) scale(5.3216666666667)"><rect width="6" height="6"/></g>
<g transform="translate(248,372) scale(5.3216666666667)"><rect width="6" height="6"/></g>
<g transform="translate(279,372) scale(5.3216666666667)"><rect width="6" height="6"/></g>
<g transform="translate(310,372) scale(5.3216666666667)"><rect width="6" height="6"/></g>
<g transform="translate(341,372) scale(5.3216666666667)"><rect width="6" height="6"/></g>
<g transform="translate(372,372) scale(5.3216666666667)"><rect width="6" height="6"/></g>
<g transform="translate(403,372) scale(5.3216666666667)"><rect width="6" height="6"/></g>
<g transform="translate(434,372) scale(5.3216666666667)"><rect width="6" height="6"/></g>
<g transform="translate(465,372) scale(5.3216666666667)"><rect width="6" height="6"/></g>
<g transform="translate(558,372) scale(5.3216666666667)"><rect width="6" height="6"/></g>
<g transform="translate(620,372) scale(5.3216666666667)"><rect width="6" height="6"/></g>
<g transform="translate(651,372) scale(5.3216666666667)"><rect width="6" height="6"/></g>
<g transform="translate(713,372) scale(5.3216666666667)"><rect width="6" height="6"/></g>
<g transform="translate(775,372) scale(5.3216666666667)"><rect width="6" height="6"/></g>
<g transform="translate(806,372) scale(5.3216666666667)"><rect width="6" height="6"/></g>
<g transform="translate(868,372) scale(5.3216666666667)"><rect width="6" height="6"/></g>
<g transform="translate(899,372) scale(5.3216666666667)"><rect width="6" height="6"/></g>
<g transform="translate(93,403) scale(5.3216666666667)"><rect width="6" height="6"/></g>
<g transform="translate(155,403) scale(5.3216666666667)"><rect width="6" height="6"/></g>
<g transform="translate(217,403) scale(5.3216666666667)"><rect width="6" height="6"/></g>
<g transform="translate(279,403) scale(5.3216666666667)"><rect width="6" height="6"/></g>
<g transform="translate(310,403) scale(5.3216666666667)"><rect width="6" height="6"/></g>
<g transform="translate(372,403) scale(5.3216666666667)"><rect width="6" height="6"/></g>
<g transform="translate(465,403) scale(5.3216666666667)"><rect width="6" height="6"/></g>
<g transform="translate(620,403) scale(5.3216666666667)"><rect width="6" height="6"/></g>
<g transform="translate(651,403) scale(5.3216666666667)"><rect width="6" height="6"/></g>
<g transform="translate(682,403) scale(5.3216666666667)"><rect width="6" height="6"/></g>
<g transform="translate(713,403) scale(5.3216666666667)"><rect width="6" height="6"/></g>
<g transform="translate(775,403) scale(5.3216666666667)"><rect width="6" height="6"/></g>
<g transform="translate(868,403) scale(5.3216666666667)"><rect width="6" height="6"/></g>
<g transform="translate(899,403) scale(5.3216666666667)"><rect width="6" height="6"/></g>
<g transform="translate(62,434) scale(5.3216666666667)"><rect width="6" height="6"/></g>
<g transform="translate(93,434) scale(5.3216666666667)"><rect width="6" height="6"/></g>
<g transform="translate(155,434) scale(5.3216666666667)"><rect width="6" height="6"/></g>
<g transform="translate(186,434) scale(5.3216666666667)"><rect width="6" height="6"/></g>
<g transform="translate(217,434) scale(5.3216666666667)"><rect width="6" height="6"/></g>
<g transform="translate(248,434) scale(5.3216666666667)"><rect width="6" height="6"/></g>
<g transform="translate(310,434) scale(5.3216666666667)"><rect width="6" height="6"/></g>
<g transform="translate(341,434) scale(5.3216666666667)"><rect width="6" height="6"/></g>
<g transform="translate(403,434) scale(5.3216666666667)"><rect width="6" height="6"/></g>
<g transform="translate(434,434) scale(5.3216666666667)"><rect width="6" height="6"/></g>
<g transform="translate(527,434) scale(5.3216666666667)"><rect width="6" height="6"/></g>
<g transform="translate(589,434) scale(5.3216666666667)"><rect width="6" height="6"/></g>
<g transform="translate(651,434) scale(5.3216666666667)"><rect width="6" height="6"/></g>
<g transform="translate(682,434) scale(5.3216666666667)"><rect width="6" height="6"/></g>
<g transform="translate(713,434) scale(5.3216666666667)"><rect width="6" height="6"/></g>
<g transform="translate(775,434) scale(5.3216666666667)"><rect width="6" height="6"/></g>
<g transform="translate(806,434) scale(5.3216666666667)"><rect width="6" height="6"/></g>
<g transform="translate(837,434) scale(5.3216666666667)"><rect width="6" height="6"/></g>
<g transform="translate(899,434) scale(5.3216666666667)"><rect width="6" height="6"/></g>
<g transform="translate(93,465) scale(5.3216666666667)"><rect width="6" height="6"/></g>
<g transform="translate(124,465) scale(5.3216666666667)"><rect width="6" height="6"/></g>
<g transform="translate(155,465) scale(5.3216666666667)"><rect width="6" height="6"/></g>
<g transform="translate(217,465) scale(5.3216666666667)"><rect width="6" height="6"/></g>
<g transform="translate(279,465) scale(5.3216666666667)"><rect width="6" height="6"/></g>
<g transform="translate(341,465) scale(5.3216666666667)"><rect width="6" height="6"/></g>
<g transform="translate(434,465) scale(5.3216666666667)"><rect width="6" height="6"/></g>
<g transform="translate(465,465) scale(5.3216666666667)"><rect width="6" height="6"/></g>
<g transform="translate(496,465) scale(5.3216666666667)"><rect width="6" height="6"/></g>
<g transform="translate(527,465) scale(5.3216666666667)"><rect width="6" height="6"/></g>
<g transform="translate(620,465) scale(5.3216666666667)"><rect width="6" height="6"/></g>
<g transform="translate(744,465) scale(5.3216666666667)"><rect width="6" height="6"/></g>
<g transform="translate(806,465) scale(5.3216666666667)"><rect width="6" height="6"/></g>
<g transform="translate(868,465) scale(5.3216666666667)"><rect width="6" height="6"/></g>
<g transform="translate(899,465) scale(5.3216666666667)"><rect width="6" height="6"/></g>
<g transform="translate(155,496) scale(5.3216666666667)"><rect width="6" height="6"/></g>
<g transform="translate(186,496) scale(5.3216666666667)"><rect width="6" height="6"/></g>
<g transform="translate(248,496) scale(5.3216666666667)"><rect width="6" height="6"/></g>
<g transform="translate(310,496) scale(5.3216666666667)"><rect width="6" height="6"/></g>
<g transform="translate(465,496) scale(5.3216666666667)"><rect width="6" height="6"/></g>
<g transform="translate(496,496) scale(5.3216666666667)"><rect width="6" height="6"/></g>
<g transform="translate(558,496) scale(5.3216666666667)"><rect width="6" height="6"/></g>
<g transform="translate(589,496) scale(5.3216666666667)"><rect width="6" height="6"/></g>
<g transform="translate(651,496) scale(5.3216666666667)"><rect width="6" height="6"/></g>
<g transform="translate(713,496) scale(5.3216666666667)"><rect width="6" height="6"/></g>
<g transform="translate(806,496) scale(5.3216666666667)"><rect width="6" height="6"/></g>
<g transform="translate(868,496) scale(5.3216666666667)"><rect width="6" height="6"/></g>
<g transform="translate(93,527) scale(5.3216666666667)"><rect width="6" height="6"/></g>
<g transform="translate(124,527) scale(5.3216666666667)"><rect width="6" height="6"/></g>
<g transform="translate(186,527) scale(5.3216666666667)"><rect width="6" height="6"/></g>
<g transform="translate(279,527) scale(5.3216666666667)"><rect width="6" height="6"/></g>
<g transform="translate(310,527) scale(5.3216666666667)"><rect width="6" height="6"/></g>
<g transform="translate(372,527) scale(5.3216666666667)"><rect width="6" height="6"/></g>
<g transform="translate(434,527) scale(5.3216666666667)"><rect width="6" height="6"/></g>
<g transform="translate(496,527) scale(5.3216666666667)"><rect width="6" height="6"/></g>
<g transform="translate(527,527) scale(5.3216666666667)"><rect width="6" height="6"/></g>
<g transform="translate(558,527) scale(5.3216666666667)"><rect width="6" height="6"/></g>
<g transform="translate(620,527) scale(5.3216666666667)"><rect width="6" height="6"/></g>
<g transform="translate(651,527) scale(5.3216666666667)"><rect width="6" height="6"/></g>
<g transform="translate(713,527) scale(5.3216666666667)"><rect width="6" height="6"/></g>
<g transform="translate(62,558) scale(5.3216666666667)"><rect width="6" height="6"/></g>
<g transform="translate(124,558) scale(5.3216666666667)"><rect width="6" height="6"/></g>
<g transform="translate(186,558) scale(5.3216666666667)"><rect width="6" height="6"/></g>
<g transform="translate(248,558) scale(5.3216666666667)"><rect width="6" height="6"/></g>
<g transform="translate(434,558) scale(5.3216666666667)"><rect width="6" height="6"/></g>
<g transform="translate(496,558) scale(5.3216666666667)"><rect width="6" height="6"/></g>
<g transform="translate(558,558) scale(5.3216666666667)"><rect width="6" height="6"/></g>
<g transform="translate(589,558) scale(5.3216666666667)"><rect width="6" height="6"/></g>
<g transform="translate(620,558) scale(5.3216666666667)"><rect width="6" height="6"/></g>
<g transform="translate(651,558) scale(5.3216666666667)"><rect width="6" height="6"/></g>
<g transform="translate(682,558) scale(5.3216666666667)"><rect width="6" height="6"/></g>
<g transform="translate(713,558) scale(5.3216666666667)"><rect width="6" height="6"/></g>
<g transform="translate(775,558) scale(5.3216666666667)"><rect width="6" height="6"/></g>
<g transform="translate(806,558) scale(5.3216666666667)"><rect width="6" height="6"/></g>
<g transform="translate(837,558) scale(5.3216666666667)"><rect width="6" height="6"/></g>
<g transform="translate(899,558) scale(5.3216666666667)"><rect width="6" height="6"/></g>
<g transform="translate(62,589) scale(5.3216666666667)"><rect width="6" height="6"/></g>
<g transform="translate(93,589) scale(5.3216666666667)"><rect width="6" height="6"/></g>
<g transform="translate(155,589) scale(5.3216666666667)"><rect width="6" height="6"/></g>
<g transform="translate(310,589) scale(5.3216666666667)"><rect width="6" height="6"/></g>
<g transform="translate(341,589) scale(5.3216666666667)"><rect width="6" height="6"/></g>
<g transform="translate(372,589) scale(5.3216666666667)"><rect width="6" height="6"/></g>
<g transform="translate(403,589) scale(5.3216666666667)"><rect width="6" height="6"/></g>
<g transform="translate(465,589) scale(5.3216666666667)"><rect width="6" height="6"/></g>
<g transform="translate(527,589) scale(5.3216666666667)"><rect width="6" height="6"/></g>
<g transform="translate(558,589) scale(5.3216666666667)"><rect width="6" height="6"/></g>
<g transform="translate(713,589) scale(5.3216666666667)"><rect width="6" height="6"/></g>
<g transform="translate(775,589) scale(5.3216666666667)"><rect width="6" height="6"/></g>
<g transform="translate(837,589) scale(5.3216666666667)"><rect width="6" height="6"/></g>
<g transform="translate(868,589) scale(5.3216666666667)"><rect width="6" height="6"/></g>
<g transform="translate(62,620) scale(5.3216666666667)"><rect width="6" height="6"/></g>
<g transform="translate(124,620) scale(5.3216666666667)"><rect width="6" height="6"/></g>
<g transform="translate(217,620) scale(5.3216666666667)"><rect width="6" height="6"/></g>
<g transform="translate(248,620) scale(5.3216666666667)"><rect width="6" height="6"/></g>
<g transform="translate(341,620) scale(5.3216666666667)"><rect width="6" height="6"/></g>
<g transform="translate(403,620) scale(5.3216666666667)"><rect width="6" height="6"/></g>
<g transform="translate(496,620) scale(5.3216666666667)"><rect width="6" height="6"/></g>
<g transform="translate(558,620) scale(5.3216666666667)"><rect width="6" height="6"/></g>
<g transform="translate(589,620) scale(5.3216666666667)"><rect width="6" height="6"/></g>
<g transform="translate(682,620) scale(5.3216666666667)"><rect width="6" height="6"/></g>
<g transform="translate(713,620) scale(5.3216666666667)"><rect width="6" height="6"/></g>
<g transform="translate(806,620) scale(5.3216666666667)"><rect width="6" height="6"/></g>
<g transform="translate(837,620) scale(5.3216666666667)"><rect width="6" height="6"/></g>
<g transform="translate(930,620) scale(5.3216666666667)"><rect width="6" height="6"/></g>
<g transform="translate(62,651) scale(5.3216666666667)"><rect width="6" height="6"/></g>
<g transform="translate(155,651) scale(5.3216666666667)"><rect width="6" height="6"/></g>
<g transform="translate(186,651) scale(5.3216666666667)"><rect width="6" height="6"/></g>
<g transform="translate(310,651) scale(5.3216666666667)"><rect width="6" height="6"/></g>
<g transform="translate(372,651) scale(5.3216666666667)"><rect width="6" height="6"/></g>
<g transform="translate(403,651) scale(5.3216666666667)"><rect width="6" height="6"/></g>
<g transform="translate(527,651) scale(5.3216666666667)"><rect width="6" height="6"/></g>
<g transform="translate(713,651) scale(5.3216666666667)"><rect width="6" height="6"/></g>
<g transform="translate(744,651) scale(5.3216666666667)"><rect width="6" height="6"/></g>
<g transform="translate(775,651) scale(5.3216666666667)"><rect width="6" height="6"/></g>
<g transform="translate(930,651) scale(5.3216666666667)"><rect width="6" height="6"/></g>
<g transform="translate(62,682) scale(5.3216666666667)"><rect width="6" height="6"/></g>
<g transform="translate(124,682) scale(5.3216666666667)"><rect width="6" height="6"/></g>
<g transform="translate(155,682) scale(5.3216666666667)"><rect width="6" height="6"/></g>
<g transform="translate(186,682) scale(5.3216666666667)"><rect width="6" height="6"/></g>
<g transform="translate(248,682) scale(5.3216666666667)"><rect width="6" height="6"/></g>
<g transform="translate(310,682) scale(5.3216666666667)"><rect width="6" height="6"/></g>
<g transform="translate(341,682) scale(5.3216666666667)"><rect width="6" height="6"/></g>
<g transform="translate(403,682) scale(5.3216666666667)"><rect width="6" height="6"/></g>
<g transform="translate(434,682) scale(5.3216666666667)"><rect width="6" height="6"/></g>
<g transform="translate(496,682) scale(5.3216666666667)"><rect width="6" height="6"/></g>
<g transform="translate(682,682) scale(5.3216666666667)"><rect width="6" height="6"/></g>
<g transform="translate(713,682) scale(5.3216666666667)"><rect width="6" height="6"/></g>
<g transform="translate(744,682) scale(5.3216666666667)"><rect width="6" height="6"/></g>
<g transform="translate(775,682) scale(5.3216666666667)"><rect width="6" height="6"/></g>
<g transform="translate(806,682) scale(5.3216666666667)"><rect width="6" height="6"/></g>
<g transform="translate(837,682) scale(5.3216666666667)"><rect width="6" height="6"/></g>
<g transform="translate(899,682) scale(5.3216666666667)"><rect width="6" height="6"/></g>
<g transform="translate(310,713) scale(5.3216666666667)"><rect width="6" height="6"/></g>
<g transform="translate(372,713) scale(5.3216666666667)"><rect width="6" height="6"/></g>
<g transform="translate(434,713) scale(5.3216666666667)"><rect width="6" height="6"/></g>
<g transform="translate(465,713) scale(5.3216666666667)"><rect width="6" height="6"/></g>
<g transform="translate(527,713) scale(5.3216666666667)"><rect width="6" height="6"/></g>
<g transform="translate(620,713) scale(5.3216666666667)"><rect width="6" height="6"/></g>
<g transform="translate(651,713) scale(5.3216666666667)"><rect width="6" height="6"/></g>
<g transform="translate(682,713) scale(5.3216666666667)"><rect width="6" height="6"/></g>
<g transform="translate(806,713) scale(5.3216666666667)"><rect width="6" height="6"/></g>
<g transform="translate(899,713) scale(5.3216666666667)"><rect width="6" height="6"/></g>
<g transform="translate(372,744) scale(5.3216666666667)"><rect width="6" height="6"/></g>
<g transform="translate(465,744) scale(5.3216666666667)"><rect width="6" height="6"/></g>
<g transform="translate(527,744) scale(5.3216666666667)"><rect width="6" height="6"/></g>
<g transform="translate(589,744) scale(5.3216666666667)"><rect width="6" height="6"/></g>
<g transform="translate(651,744) scale(5.3216666666667)"><rect width="6" height="6"/></g>
<g transform="translate(682,744) scale(5.3216666666667)"><rect width="6" height="6"/></g>
<g transform="translate(744,744) scale(5.3216666666667)"><rect width="6" height="6"/></g>
<g transform="translate(806,744) scale(5.3216666666667)"><rect width="6" height="6"/></g>
<g transform="translate(837,744) scale(5.3216666666667)"><rect width="6" height="6"/></g>
<g transform="translate(868,744) scale(5.3216666666667)"><rect width="6" height="6"/></g>
<g transform="translate(899,744) scale(5.3216666666667)"><rect width="6" height="6"/></g>
<g transform="translate(372,775) scale(5.3216666666667)"><rect width="6" height="6"/></g>
<g transform="translate(403,775) scale(5.3216666666667)"><rect width="6" height="6"/></g>
<g transform="translate(651,775) scale(5.3216666666667)"><rect width="6" height="6"/></g>
<g transform="translate(682,775) scale(5.3216666666667)"><rect width="6" height="6"/></g>
<g transform="translate(806,775) scale(5.3216666666667)"><rect width="6" height="6"/></g>
<g transform="translate(310,806) scale(5.3216666666667)"><rect width="6" height="6"/></g>
<g transform="translate(372,806) scale(5.3216666666667)"><rect width="6" height="6"/></g>
<g transform="translate(403,806) scale(5.3216666666667)"><rect width="6" height="6"/></g>
<g transform="translate(434,806) scale(5.3216666666667)"><rect width="6" height="6"/></g>
<g transform="translate(527,806) scale(5.3216666666667)"><rect width="6" height="6"/></g>
<g transform="translate(589,806) scale(5.3216666666667)"><rect width="6" height="6"/></g>
<g transform="translate(620,806) scale(5.3216666666667)"><rect width="6" height="6"/></g>
<g transform="translate(682,806) scale(5.3216666666667)"><rect width="6" height="6"/></g>
<g transform="translate(713,806) scale(5.3216666666667)"><rect width="6" height="6"/></g>
<g transform="translate(744,806) scale(5.3216666666667)"><rect width="6" height="6"/></g>
<g transform="translate(775,806) scale(5.3216666666667)"><rect width="6" height="6"/></g>
<g transform="translate(806,806) scale(5.3216666666667)"><rect width="6" height="6"/></g>
<g transform="translate(837,806) scale(5.3216666666667)"><rect width="6" height="6"/></g>
<g transform="translate(930,806) scale(5.3216666666667)"><rect width="6" height="6"/></g>
<g transform="translate(310,837) scale(5.3216666666667)"><rect width="6" height="6"/></g>
<g transform="translate(341,837) scale(5.3216666666667)"><rect width="6" height="6"/></g>
<g transform="translate(372,837) scale(5.3216666666667)"><rect width="6" height="6"/></g>
<g transform="translate(403,837) scale(5.3216666666667)"><rect width="6" height="6"/></g>
<g transform="translate(434,837) scale(5.3216666666667)"><rect width="6" height="6"/></g>
<g transform="translate(496,837) scale(5.3216666666667)"><rect width="6" height="6"/></g>
<g transform="translate(527,837) scale(5.3216666666667)"><rect width="6" height="6"/></g>
<g transform="translate(682,837) scale(5.3216666666667)"><rect width="6" height="6"/></g>
<g transform="translate(868,837) scale(5.3216666666667)"><rect width="6" height="6"/></g>
<g transform="translate(899,837) scale(5.3216666666667)"><rect width="6" height="6"/></g>
<g transform="translate(310,868) scale(5.3216666666667)"><rect width="6" height="6"/></g>
<g transform="translate(341,868) scale(5.3216666666667)"><rect width="6" height="6"/></g>
<g transform="translate(372,868) scale(5.3216666666667)"><rect width="6" height="6"/></g>
<g transform="translate(403,868) scale(5.3216666666667)"><rect width="6" height="6"/></g>
<g transform="translate(465,868) scale(5.3216666666667)"><rect width="6" height="6"/></g>
<g transform="translate(558,868) scale(5.3216666666667)"><rect width="6" height="6"/></g>
<g transform="translate(620,868) scale(5.3216666666667)"><rect width="6" height="6"/></g>
<g transform="translate(713,868) scale(5.3216666666667)"><rect width="6" height="6"/></g>
<g transform="translate(744,868) scale(5.3216666666667)"><rect width="6" height="6"/></g>
<g transform="translate(806,868) scale(5.3216666666667)"><rect width="6" height="6"/></g>
<g transform="translate(837,868) scale(5.3216666666667)"><rect width="6" height="6"/></g>
<g transform="translate(899,868) scale(5.3216666666667)"><rect width="6" height="6"/></g>
<g transform="translate(372,899) scale(5.3216666666667)"><rect width="6" height="6"/></g>
<g transform="translate(403,899) scale(5.3216666666667)"><rect width="6" height="6"/></g>
<g transform="translate(496,899) scale(5.3216666666667)"><rect width="6" height="6"/></g>
<g transform="translate(558,899) scale(5.3216666666667)"><rect width="6" height="6"/></g>
<g transform="translate(620,899) scale(5.3216666666667)"><rect width="6" height="6"/></g>
<g transform="translate(744,899) scale(5.3216666666667)"><rect width="6" height="6"/></g>
<g transform="translate(775,899) scale(5.3216666666667)"><rect width="6" height="6"/></g>
<g transform="translate(806,899) scale(5.3216666666667)"><rect width="6" height="6"/></g>
<g transform="translate(837,899) scale(5.3216666666667)"><rect width="6" height="6"/></g>
<g transform="translate(899,899) scale(5.3216666666667)"><rect width="6" height="6"/></g>
<g transform="translate(930,899) scale(5.3216666666667)"><rect width="6" height="6"/></g>
<g transform="translate(372,930) scale(5.3216666666667)"><rect width="6" height="6"/></g>
<g transform="translate(434,930) scale(5.3216666666667)"><rect width="6" height="6"/></g>
<g transform="translate(465,930) scale(5.3216666666667)"><rect width="6" height="6"/></g>
<g transform="translate(527,930) scale(5.3216666666667)"><rect width="6" height="6"/></g>
<g transform="translate(620,930) scale(5.3216666666667)"><rect width="6" height="6"/></g>
<g transform="translate(651,930) scale(5.3216666666667)"><rect width="6" height="6"/></g>
<g transform="translate(682,930) scale(5.3216666666667)"><rect width="6" height="6"/></g>
<g transform="translate(713,930) scale(5.3216666666667)"><rect width="6" height="6"/></g>
<g transform="translate(744,930) scale(5.3216666666667)"><rect width="6" height="6"/></g>
<g transform="translate(837,930) scale(5.3216666666667)"><rect width="6" height="6"/></g>
<g transform="translate(899,930) scale(5.3216666666667)"><rect width="6" height="6"/></g>
</g><g><g transform="translate(62,62)"  fill="#363636ff"><g transform="scale(15.5)"><path d="M4.5,14h5.1C12,14,14,12,14,9.6V4.5C14,2,12,0,9.5,0H4.4C2,0,0,2,0,4.4v5.1C0,12,2,14,4.5,14z M12,4.8v4.4 c0,1.5-1.3,2.8-2.8,2.8H4.8C3.2,12,2,10.8,2,9.2V4.8C2,3.3,3.3,2,4.8,2h4.4C10.8,2,12,3.2,12,4.8z"/></g></g>
<g transform="translate(744,62)"  fill="#363636ff"><g transform="scale(15.5)"><path d="M4.5,14h5.1C12,14,14,12,14,9.6V4.5C14,2,12,0,9.5,0H4.4C2,0,0,2,0,4.4v5.1C0,12,2,14,4.5,14z M12,4.8v4.4 c0,1.5-1.3,2.8-2.8,2.8H4.8C3.2,12,2,10.8,2,9.2V4.8C2,3.3,3.3,2,4.8,2h4.4C10.8,2,12,3.2,12,4.8z"/></g></g>
<g transform="translate(62,744)"  fill="#363636ff"><g transform="scale(15.5)"><path d="M4.5,14h5.1C12,14,14,12,14,9.6V4.5C14,2,12,0,9.5,0H4.4C2,0,0,2,0,4.4v5.1C0,12,2,14,4.5,14z M12,4.8v4.4 c0,1.5-1.3,2.8-2.8,2.8H4.8C3.2,12,2,10.8,2,9.2V4.8C2,3.3,3.3,2,4.8,2h4.4C10.8,2,12,3.2,12,4.8z"/></g></g>
<g transform="translate(124,124)"  fill="#363636ff"><g transform="scale(15.5)"><path d="M6,1.7v2.7C6,5.2,5.2,6,4.3,6H1.7C0.7,6,0,5.3,0,4.3V1.7C0,0.8,0.8,0,1.7,0h2.7C5.3,0,6,0.7,6,1.7z"/></g></g>
<g transform="translate(806,124)"  fill="#363636ff"><g transform="scale(15.5)"><path d="M6,1.7v2.7C6,5.2,5.2,6,4.3,6H1.7C0.7,6,0,5.3,0,4.3V1.7C0,0.8,0.8,0,1.7,0h2.7C5.3,0,6,0.7,6,1.7z"/></g></g>
<g transform="translate(124,806)"  fill="#363636ff"><g transform="scale(15.5)"><path d="M6,1.7v2.7C6,5.2,5.2,6,4.3,6H1.7C0.7,6,0,5.3,0,4.3V1.7C0,0.8,0.8,0,1.7,0h2.7C5.3,0,6,0.7,6,1.7z"/></g></g></g>
</svg>